<svg width="353" height="100" viewBox="0 0 353 100" fill="none" xmlns="http://www.w3.org/2000/svg">
<path d="M136.739 42.9524C134.13 39.6126 130.829 36.9089 126.888 35.0004C122.948 33.092 118.476 32.0847 113.63 32.0847C109.264 32.0847 105.164 32.8799 101.33 34.4173C97.4968 35.9547 94.1423 38.2342 91.3203 41.15C88.4983 44.0657 86.262 47.6176 84.6646 51.6466C83.0672 55.6756 82.2686 60.2877 82.2686 65.271C82.2686 69.9361 82.9607 74.3362 84.3451 78.3122C85.7295 82.3412 87.8061 85.8931 90.4684 88.9678C93.1839 91.9896 96.5384 94.4282 100.425 96.1246C104.312 97.821 108.891 98.7223 113.95 98.7223C117.837 98.7223 121.404 98.1921 124.652 97.1319C127.9 96.0716 130.775 94.5872 133.225 92.7318C135.674 90.8763 137.75 88.7028 139.401 86.2642C141.052 83.8256 142.276 81.1219 143.022 78.3122L143.714 75.6615H129.018L128.486 76.9339C127.368 79.5845 125.717 81.599 123.427 83.2424C121.191 84.7798 117.996 85.575 114.003 85.575C112.033 85.575 110.063 85.2039 108.146 84.5147C106.229 83.8256 104.525 82.7653 102.981 81.387C101.437 79.9556 100.159 78.2062 99.1474 76.0856C98.402 74.4952 97.9228 72.6928 97.7098 70.6253H143.767L143.874 68.6108C144.193 63.6276 143.714 58.9094 142.489 54.5093C141.265 50.2152 139.348 46.2922 136.739 42.9524ZM107.773 45.9212C109.637 45.338 111.607 45.0729 113.63 45.0729C115.973 45.0729 118.103 45.497 119.966 46.3453C121.83 47.1935 123.427 48.3067 124.705 49.6851C125.983 51.0634 126.995 52.6538 127.687 54.4563C128.113 55.5695 128.432 56.6298 128.592 57.7431H97.8695C98.189 55.9937 98.6682 54.4563 99.3071 53.1309C100.266 51.2225 101.437 49.6851 102.875 48.5188C104.312 47.2995 105.963 46.4513 107.773 45.9212Z" fill="black"></path>
<path d="M232.135 81.5768V45.7306H243.546V33.2484H232.135V18.0991H217.631V33.2484H208.14V45.7306H217.631V89.9516L224.883 97.8996H248.451V85.0974H235.121L232.135 81.5768Z" fill="black"></path>
<path d="M350.629 54.6153C349.404 50.2152 347.488 46.2922 344.878 42.9524C342.269 39.6126 338.968 36.9089 335.028 35.0004C331.088 33.092 326.615 32.0847 321.77 32.0847C317.404 32.0847 313.304 32.8799 309.47 34.4173C305.636 35.9547 302.282 38.2342 299.46 41.15C296.638 44.0657 294.402 47.6176 292.804 51.6466C291.207 55.6756 290.408 60.2877 290.408 65.271C290.408 69.9361 291.1 74.3362 292.485 78.3122C293.869 82.3412 295.946 85.8931 298.608 88.9678C301.324 91.9896 304.678 94.4282 308.565 96.1246C312.452 97.821 317.031 98.7223 322.089 98.7223C325.976 98.7223 329.544 98.1921 332.792 97.1319C336.04 96.0716 338.915 94.5872 341.364 92.7318C343.814 90.8763 345.89 88.7028 347.541 86.2642C349.191 83.8256 350.416 81.1219 351.161 78.3122L351.854 75.6615H337.158L336.625 76.9339C335.507 79.5845 333.857 81.599 331.567 83.2424C329.331 84.7798 326.136 85.575 322.143 85.575C320.173 85.575 318.202 85.2039 316.286 84.5147C314.369 83.8256 312.665 82.7653 311.121 81.387C309.577 79.9556 308.299 78.2062 307.287 76.0856C306.542 74.4952 306.062 72.6928 305.849 70.6253H351.907L352.013 68.6108C352.333 63.7336 351.854 58.9624 350.629 54.6153ZM336.785 57.7431H306.062C306.382 55.9937 306.861 54.4563 307.5 53.1309C308.458 51.2225 309.63 49.6851 311.068 48.5188C312.505 47.3525 314.103 46.4513 315.913 45.9212C317.776 45.338 319.747 45.0729 321.77 45.0729C324.113 45.0729 326.243 45.497 328.106 46.3453C329.97 47.1935 331.567 48.3067 332.845 49.6851C334.123 51.0634 335.135 52.6538 335.827 54.4563C336.306 55.5165 336.572 56.6298 336.785 57.7431Z" fill="black"></path>
<path d="M40.7764 48.3256C38.2777 52.8445 38.2777 57.6824 38.2777 62.3608V79.4794H34.8752V63.0519C34.8752 62.3076 34.8752 61.6165 34.9284 60.8722C34.9816 56.8849 35.0879 52.7914 33.0145 48.9104L19.7236 23.7641H0V99.4689H13.8225V42.1587L20.7869 55.3964C22.0097 57.7356 22.6476 60.3406 22.6476 62.9987V63.1582C22.7008 64.381 24.402 92.6108 24.8273 96.3322L25.0932 98.6714L48.5383 98.8841L48.7509 96.4386C49.2294 91.1754 50.718 64.2215 50.7711 63.0519V62.8924C50.7711 60.1279 51.4622 57.4166 52.7913 54.9711L61.0317 40.0853V99.4157H74.8542V23.8173H54.2799L40.7764 48.3256Z" fill="black"></path>
<path d="M36.9487 26.4222C40.5895 26.4222 43.541 23.4708 43.541 19.8299C43.541 16.1891 40.5895 13.2377 36.9487 13.2377C33.3079 13.2377 30.3564 16.1891 30.3564 19.8299C30.3564 23.4708 33.3079 26.4222 36.9487 26.4222Z" fill="black"></path>
<path d="M50.186 13.1845C53.8268 13.1845 56.7783 10.2331 56.7783 6.59227C56.7783 2.95146 53.8268 0 50.186 0C46.5452 0 43.5938 2.95146 43.5938 6.59227C43.5938 10.2331 46.5452 13.1845 50.186 13.1845Z" fill="black"></path>
<path d="M23.7109 13.1845C27.3517 13.1845 30.3032 10.2331 30.3032 6.59227C30.3032 2.95146 27.3517 0 23.7109 0C20.0701 0 17.1187 2.95146 17.1187 6.59227C17.1187 10.2331 20.0701 13.1845 23.7109 13.1845Z" fill="black"></path>
<path d="M184.809 58.1102L175 55.7847C170.886 54.8334 169.146 53.935 168.461 53.3008C167.617 52.6137 167.248 51.6624 167.248 50.3411C167.248 48.28 167.986 46.853 169.515 45.8488C171.256 44.6861 173.998 44.0519 177.637 44.0519C181.223 44.0519 184.071 44.7918 186.074 46.2716C187.92 47.6458 188.922 49.5484 189.133 52.1381L189.291 54.0935H203.214V51.8209C203.214 45.5317 200.788 40.4581 196.042 36.7057C191.454 33.059 185.283 31.2621 177.637 31.2621C170.201 31.2621 164.189 33.0062 159.812 36.3886C155.277 39.9296 152.956 44.739 152.956 50.7639C152.956 55.9961 154.433 60.1713 157.28 63.0781C160.075 65.932 164.769 68.0989 171.519 69.7373L182.858 72.6969C187.129 73.7011 188.659 74.7581 189.239 75.2337C190.082 76.0265 190.452 77.1892 190.452 78.7747C190.452 81.0473 189.555 82.7385 187.604 84.0598C185.442 85.5396 182.383 86.2795 178.533 86.2795C174.314 86.2795 171.097 85.3811 168.935 83.5841C166.826 81.8401 165.613 79.2504 165.296 75.7622L165.138 73.8596H151.374L151.427 76.0265C151.532 83.5313 153.958 89.4505 158.493 93.52C163.029 97.5367 169.463 99.545 177.689 99.545C186.022 99.545 192.667 97.6424 197.466 93.89C202.37 90.0319 204.849 84.5354 204.849 77.612C204.849 72.2741 203.319 68.0461 200.261 65.0864C197.255 62.1268 192.245 59.9071 184.809 58.1102Z" fill="black"></path>
<path d="M280.17 44.4366H295.344V33.0683H275.623V33.2828L275.412 33.0683L268.327 40.3076V32.9075H254.21V97.8997H268.538V63.9557L268.432 56.3411L280.17 44.4366Z" fill="black"></path>
</svg>