<svg width="80" height="80" viewBox="0 0 80 100" fill="none" xmlns="http://www.w3.org/2000/svg">
<path d="M40.7764 48.3256C38.2777 52.8445 38.2777 57.6824 38.2777 62.3608V79.4794H34.8752V63.0519C34.8752 62.3076 34.8752 61.6165 34.9284 60.8722C34.9816 56.8849 35.0879 52.7914 33.0145 48.9104L19.7236 23.7641H0V99.4689H13.8225V42.1587L20.7869 55.3964C22.0097 57.7356 22.6476 60.3406 22.6476 62.9987V63.1582C22.7008 64.381 24.402 92.6108 24.8273 96.3322L25.0932 98.6714L48.5383 98.8841L48.7509 96.4386C49.2294 91.1754 50.718 64.2215 50.7711 63.0519V62.8924C50.7711 60.1279 51.4622 57.4166 52.7913 54.9711L61.0317 40.0853V99.4157H74.8542V23.8173H54.2799L40.7764 48.3256Z" fill="currentColor"></path>
<path d="M36.9487 26.4222C40.5895 26.4222 43.541 23.4708 43.541 19.8299C43.541 16.1891 40.5895 13.2377 36.9487 13.2377C33.3079 13.2377 30.3564 16.1891 30.3564 19.8299C30.3564 23.4708 33.3079 26.4222 36.9487 26.4222Z" fill="currentColor"></path>
<path d="M50.186 13.1845C53.8268 13.1845 56.7783 10.2331 56.7783 6.59227C56.7783 2.95146 53.8268 0 50.186 0C46.5452 0 43.5938 2.95146 43.5938 6.59227C43.5938 10.2331 46.5452 13.1845 50.186 13.1845Z" fill="currentColor"></path>
<path d="M23.7109 13.1845C27.3517 13.1845 30.3032 10.2331 30.3032 6.59227C30.3032 2.95146 27.3517 0 23.7109 0C20.0701 0 17.1187 2.95146 17.1187 6.59227C17.1187 10.2331 20.0701 13.1845 23.7109 13.1845Z" fill="currentColor"></path>
</svg>